<svg width="0" height="0" class="none">
    <symbol xmlns="http://www.w3.org/2000/svg" viewBox="0 0 512.032 512.032" id="scissors">
      <path d="M493.68 358.113a97.51 97.51 0 00-16.249-17.546c-7.177-6.048-17.168 5.149-9.664 11.472a82.49 82.49 0 0113.745 14.845c12.825 17.794 17.952 39.516 14.436 61.165-3.517 21.649-15.256 40.633-33.056 53.455-36.744 26.47-88.179 18.12-114.656-18.615l-74.092-102.72 57.693-41.562 4.67-3.364 21.709 30.054a7.5 7.5 0 0010.314 1.799c18.827-12.877 42.406-17.339 64.688-12.247 9.152 2.083 12.909-12.435 3.344-14.623-23.959-5.476-49.183-1.607-70.303 10.588l-21.979-30.426-.003-.003-22.423-31.165 91.4-129.073c15.517-21.528 21.72-47.81 17.466-74.003-4.254-26.194-18.455-49.162-39.987-64.673-3.98-2.331-7.478-1.752-10.495 1.737l-26.74 37.581c-5.441 7.647 6.534 16.692 12.223 8.696l22.175-31.165c14.956 12.911 24.813 30.491 28.019 50.228 3.612 22.238-1.654 44.551-14.864 62.879l-88.458 124.917-47.292-65.73L344.312 79.57c5.441-7.648-6.534-16.692-12.223-8.696l-76.046 106.875L130.437 3.175c-3.02-3.461-6.51-4.029-10.472-1.705-21.531 15.511-35.732 38.479-39.986 64.673-4.254 26.193 1.949 52.475 17.46 73.996l92.794 129.047-22.487 31.208-.004.006-21.965 30.407c-19.701-11.426-42.619-15.539-65.296-11.59-25.142 4.378-47.207 18.192-62.13 38.896-15.168 21.045-21.231 46.736-17.072 72.34 4.16 25.604 18.043 48.056 39.094 63.221 17.141 12.348 36.985 18.289 56.655 18.289 30.194 0 59.977-13.998 78.937-40.304l78.478-108.802.001-.002.001-.001 1.572-2.182 1.563 2.174.007.011 78.479 108.802c18.962 26.308 48.74 40.306 78.937 40.303 19.667-.001 39.517-5.942 56.655-18.288 21.051-15.165 34.935-37.617 39.094-63.221 4.161-25.604-1.903-51.295-17.072-72.34zM94.785 68.547c3.208-19.75 13.077-37.341 28.05-50.254l126.662 176.042a7.407 7.407 0 001.044 1.451l77.193 107.288-35.306 25.434-27.051 19.487-2.892-4.021a7.45 7.45 0 00-.718-.998l-152.156-211.6c-13.172-18.277-18.437-40.59-14.826-62.829zm151.998 279.281l-.124.172-62.359-44.922 15.168-21.049zm-82.987 115.06c-26.478 36.734-77.911 45.083-114.656 18.615-17.799-12.822-29.539-31.806-33.055-53.455-3.517-21.648 1.61-43.371 14.436-61.165 12.618-17.506 31.275-29.186 52.535-32.889a83.012 83.012 0 0114.251-1.237c16.4 0 32.417 4.913 46.195 14.337a7.5 7.5 0 0010.314-1.799l21.709-30.053 62.362 44.925z"></path>
      <path d="M381.261 368.248c-12.514 9.014-20.767 22.361-23.239 37.582s1.132 30.493 10.149 43.003c11.271 15.637 28.975 23.958 46.923 23.958a57.436 57.436 0 0033.678-10.872c12.514-9.014 20.767-22.361 23.238-37.582 2.473-15.22-1.131-30.493-10.148-43.003-18.614-25.824-54.771-31.695-80.601-13.086zm68.433 21.857c6.673 9.259 9.341 20.563 7.511 31.828s-7.938 21.144-17.2 27.815c-19.121 13.776-45.886 9.429-59.665-9.686-6.674-9.259-9.341-20.563-7.512-31.828 1.83-11.265 7.939-21.144 17.201-27.815a42.51 42.51 0 0124.931-8.048c13.285 0 26.391 6.16 34.734 17.734zm-318.923-21.857c-25.831-18.607-61.987-12.738-80.601 13.086-15.537 21.556-14.413 50.76 2.735 71.019 6.063 7.163 17.789-2.201 11.449-9.691-12.687-14.989-13.516-36.601-2.015-52.557 13.777-19.116 40.543-23.46 59.664-9.686 9.262 6.672 15.371 16.55 17.201 27.815s-.838 22.568-7.512 31.828a42.77 42.77 0 01-36.015 17.733c-10.757-.357-9.35 15.02 1.31 15.02a57.716 57.716 0 0046.874-23.982c9.017-12.51 12.621-27.783 10.148-43.003-2.471-15.222-10.725-28.568-23.238-37.582zm148.073-97.298c0-12.587-10.24-22.828-22.828-22.828-12.587 0-22.828 10.24-22.828 22.828s10.24 22.828 22.828 22.828c12.588-.001 22.828-10.241 22.828-22.828zm-30.656 0c0-4.316 3.511-7.828 7.828-7.828s7.828 3.511 7.828 7.828-3.512 7.828-7.828 7.828-7.828-3.512-7.828-7.828z"></path>
    </symbol>
    <symbol xmlns="http://www.w3.org/2000/svg" viewBox="0 0 167.657 167.657" id="facebook-circular-logo">
        <path d="M83.829.349C37.532.349 0 37.881 0 84.178c0 41.523 30.222 75.911 69.848 82.57v-65.081H49.626v-23.42h20.222V60.978c0-20.037 12.238-30.956 30.115-30.956 8.562 0 15.92.638 18.056.919v20.944l-12.399.006c-9.72 0-11.594 4.618-11.594 11.397v14.947h23.193l-3.025 23.42H94.026v65.653c41.476-5.048 73.631-40.312 73.631-83.154 0-46.273-37.532-83.805-83.828-83.805z"></path>
    </symbol>
    <symbol xmlns="http://www.w3.org/2000/svg" viewBox="0 0 512 512" id="twitter">
        <path d="M256 0C114.637 0 0 114.637 0 256s114.637 256 256 256 256-114.637 256-256S397.363 0 256 0zm116.887 199.602c.113 2.52.168 5.05.168 7.593 0 77.645-59.102 167.18-167.184 167.184h.004-.004c-33.184 0-64.062-9.727-90.066-26.395 4.597.543 9.277.813 14.015.813 27.532 0 52.868-9.39 72.98-25.152-25.722-.477-47.41-17.465-54.894-40.813a58.481 58.481 0 0011.043 1.063 58.8 58.8 0 0015.496-2.07c-26.886-5.384-47.14-29.145-47.14-57.598 0-.266 0-.504.007-.75a58.354 58.354 0 0026.614 7.347c-15.778-10.527-26.149-28.523-26.149-48.91a58.597 58.597 0 017.957-29.535c28.977 35.555 72.282 58.937 121.118 61.394a58.708 58.708 0 01-1.528-13.398c0-32.437 26.317-58.754 58.766-58.754 16.902 0 32.168 7.145 42.89 18.567a117.855 117.855 0 0037.313-14.262c-4.395 13.715-13.707 25.222-25.84 32.5 11.887-1.422 23.215-4.574 33.742-9.254a119.412 119.412 0 01-29.308 30.43zm0 0"></path>
    </symbol>
    <symbol xmlns="http://www.w3.org/2000/svg" viewBox="0 0 97.75 97.75" id="pinterest-social-logo">
        <path d="M48.875 0C21.883 0 0 21.882 0 48.875S21.883 97.75 48.875 97.75 97.75 75.868 97.75 48.875 75.867 0 48.875 0zm5.624 65.109c-4.521 0-8.773-2.444-10.229-5.219 0 0-2.432 9.645-2.943 11.506-1.813 6.58-7.146 13.162-7.561 13.701-.289.375-.928.258-.994-.24-.113-.838-1.475-9.139.127-15.909.801-3.4 5.383-22.814 5.383-22.814s-1.334-2.673-1.334-6.625c0-6.205 3.596-10.837 8.074-10.837 3.807 0 5.645 2.859 5.645 6.286 0 3.828-2.436 9.552-3.693 14.856-1.051 4.441 2.225 8.064 6.605 8.064 7.933 0 13.272-10.188 13.272-22.261 0-9.174-6.176-16.044-17.418-16.044-12.697 0-20.615 9.471-20.615 20.052 0 3.646 1.078 6.221 2.764 8.21.773.915.883 1.283.602 2.333-.203.771-.66 2.625-.854 3.358-.279 1.062-1.137 1.44-2.098 1.049-5.846-2.387-8.572-8.793-8.572-15.994 0-11.893 10.029-26.154 29.922-26.154 15.985 0 26.506 11.566 26.506 23.984.001 16.428-9.132 28.698-22.589 28.698z"></path>
    </symbol>
    <symbol xmlns="http://www.w3.org/2000/svg" viewBox="0 0 512 512" id="place">
        <path d="M425.951 89.021C386.864 32.451 324.917 0 256.006 0S125.148 32.451 86.061 89.021c-38.895 56.284-47.876 127.541-24.072 190.496 6.367 17.192 16.488 33.895 30.01 49.547l150.378 176.634A17.895 17.895 0 00256.006 512a17.892 17.892 0 0013.629-6.302l150.336-176.586c13.582-15.742 23.69-32.427 30.004-49.481 23.852-63.069 14.871-134.326-24.024-190.61zm-9.5 178.072c-4.869 13.158-12.818 26.167-23.613 38.68-.03.03-.06.06-.084.096L256.006 466.487 119.174 305.768c-10.789-12.502-18.738-25.51-23.655-38.794-19.686-52.065-12.215-110.981 19.991-157.592 32.307-46.76 83.519-73.578 140.496-73.578 56.976 0 108.182 26.817 140.49 73.578 32.212 46.611 39.689 105.527 19.955 157.711z"></path>
        <path d="M256.006 106.219c-55.276 0-100.252 44.97-100.252 100.252s44.97 100.252 100.252 100.252 100.252-44.97 100.252-100.252c0-55.276-44.976-100.252-100.252-100.252zm0 164.699c-35.536 0-64.448-28.912-64.448-64.448 0-35.536 28.912-64.448 64.448-64.448 35.536 0 64.448 28.912 64.448 64.448s-28.912 64.448-64.448 64.448z"></path>
    </symbol>
    <symbol xmlns="http://www.w3.org/2000/svg" viewBox="0 0 512 512" id="mobile-phone">
        <path d="M366 0H146c-20.678 0-37.5 16.822-37.5 37.5v437c0 20.678 16.822 37.5 37.5 37.5h220c20.678 0 37.5-16.822 37.5-37.5v-437C403.5 16.822 386.678 0 366 0zm22.5 407H176a7.5 7.5 0 000 15h212.5v52.5c0 12.407-10.093 22.5-22.5 22.5H146c-12.407 0-22.5-10.093-22.5-22.5V422H146a7.5 7.5 0 000-15h-22.5V75h265v332zm0-347h-265V37.5c0-12.407 10.093-22.5 22.5-22.5h220c12.407 0 22.5 10.093 22.5 22.5V60z"></path>
        <path d="M286 30h-30a7.5 7.5 0 000 15h30a7.5 7.5 0 000-15zm-30 407c-12.407 0-22.5 10.093-22.5 22.5S243.593 482 256 482s22.5-10.093 22.5-22.5S268.407 437 256 437zm0 30c-4.136 0-7.5-3.364-7.5-7.5s3.364-7.5 7.5-7.5 7.5 3.364 7.5 7.5-3.364 7.5-7.5 7.5z"></path>
        <circle cx="226" cy="37.5" r="7.5"></circle>
    </symbol>
    <symbol xmlns="http://www.w3.org/2000/svg" viewBox="0 0 384 384" id="call">
        <path d="M353.188 252.052c-23.51 0-46.594-3.677-68.469-10.906-10.719-3.656-23.896-.302-30.438 6.417l-43.177 32.594c-50.073-26.729-80.917-57.563-107.281-107.26l31.635-42.052c8.219-8.208 11.167-20.198 7.635-31.448-7.26-21.99-10.948-45.063-10.948-68.583C132.146 13.823 118.323 0 101.333 0h-70.52C13.823 0 0 13.823 0 30.813 0 225.563 158.438 384 353.188 384c16.99 0 30.813-13.823 30.813-30.813v-70.323c-.001-16.989-13.824-30.812-30.813-30.812z"></path>
    </symbol>
    <symbol xmlns="http://www.w3.org/2000/svg" viewBox="0 0 74 74" id="email">
        <path d="M67.751 60.354H6.249A4.254 4.254 0 012 56.105V16.756a4.253 4.253 0 014.249-4.248h61.5A4.253 4.253 0 0172 16.756v39.349a4.254 4.254 0 01-4.249 4.249zM6.249 14.508A2.251 2.251 0 004 16.756v39.349a2.252 2.252 0 002.249 2.249h61.5A2.252 2.252 0 0070 56.105V16.756a2.251 2.251 0 00-2.249-2.248z"></path>
        <path d="M37 39.132a4.6 4.6 0 01-2.769-.92L3.53 15.1a1 1 0 011.2-1.6l30.7 23.113a2.616 2.616 0 003.132 0L69.267 13.5a1 1 0 011.2 1.6l-30.7 23.113a4.6 4.6 0 01-2.767.919z"></path>
        <path d="M3.684 59.093a1 1 0 01-.647-1.763l27.58-23.367a1 1 0 111.293 1.526L4.33 58.856a.993.993 0 01-.646.237zm66.632 0a.993.993 0 01-.646-.237L42.09 35.489a1 1 0 111.293-1.526l27.58 23.367a1 1 0 01-.647 1.763z"></path>
    </symbol>
    <symbol xmlns="http://www.w3.org/2000/svg" viewBox="0 0 458.867 458.867" id="big-instagram-logo">
        <path d="M404.75.027H55.731C25.664.027 0 28.27 0 58.245V407.49c0 29.965 25.664 51.351 55.731 51.351H404.75c30.066 0 54.117-21.386 54.117-51.351V58.245c0-29.975-24.051-58.218-54.117-58.218zM393.955 65.57c8.699 0 15.752 7.053 15.752 15.752v50.436c0 8.699-7.053 15.752-15.752 15.752h-50.443c-8.699 0-15.752-7.053-15.752-15.752V81.322c0-8.699 7.053-15.752 15.752-15.752h50.443zm-163.184 79.999c48.631 0 88.05 39.334 88.05 87.832 0 48.506-39.419 87.839-88.05 87.839-48.622 0-88.05-39.333-88.05-87.839 0-48.498 39.427-87.832 88.05-87.832zm178.936 250.207c0 7.046-7.489 13.912-14.559 13.912H66.407c-7.067 0-17.246-6.866-17.246-13.912V196.663h47.282c-3.219 16.391-4.956 24.035-4.956 36.738 0 76.617 62.479 138.934 139.283 138.934 76.811 0 139.292-62.332 139.292-138.949 0-12.688-1.738-20.332-4.941-36.723h44.586v199.113z"></path>
    </symbol>
    <symbol xmlns="http://www.w3.org/2000/svg" viewBox="0 0 24 24" id="facebook">
        <path d="M15.997 3.985h2.191V.169C17.81.117 16.51 0 14.996 0c-3.159 0-5.323 1.987-5.323 5.639V9H6.187v4.266h3.486V24h4.274V13.267h3.345l.531-4.266h-3.877V6.062c.001-1.233.333-2.077 2.051-2.077z"></path>
    </symbol>
    <symbol xmlns="http://www.w3.org/2000/svg" viewBox="0 0 305.616 305.616" id="email-envelope">
        <path d="M24.818 260.333c-24.459 0-.397-24.818-.397-24.818l62.359-68.532c6.065-6.663 17.769-16.78 24.612-11.199 6.842 5.58 15.98 16.888 22.344 23.268l12.896 12.907c6.913 6.119 12.232 0 12.232 0l13.195-12.999c6.418-6.326 15.61-17.362 22.463-22.496 6.853-5.134 18.509 4.629 24.557 11.308l61.994 68.5c24.47 24.062.397 24.062.397 24.062H24.818zm10.585-56.382c-6.065 6.668-14.925 18.264-20.913 24.998-6.761 7.599-14.49 13.369-14.49.06L.294 95.311c.022-9.013-.228-26.2 5.929-23.116 2.29 1.148 5.423 3.535 9.676 7.794l50.464 41.288c6.973 5.706 16.801 12.689 20.016 17.34 2.029 2.932 2.959 6.342.022 9.29l-50.998 56.044zm136.02-47.499c-6.967 5.716-14.539 13.826-18.406 13.837-3.867.005-11.58-7.919-18.58-13.598L24.634 67.621c-7-5.673-19.058-17.1-13.065-20.163 4.329-2.214 11.895-2.176 11.895-2.176h258.029c23.23 0 11.417 11.471 11.417 11.471l-121.487 99.699zm119.687 72.497c-5.999-6.728-14.865-18.33-20.924-24.998l-50.969-56.05c-2.953-2.948-2.029-6.358 0-9.29 3.214-4.65 13.048-11.629 20.027-17.334l37.845-30.959c6.973-5.706 16.143-15.039 22.295-18.123 6.152-3.084 5.885 14.109 5.907 23.116l.326 133.698c.004 13.309-7.736 7.539-14.507-.06z"></path>
    </symbol>
    <symbol xmlns="http://www.w3.org/2000/svg" viewBox="-21 -35 682.667 682" id="linkedin">
        <path d="M77.613-.668C30.683-.668 0 30.148 0 70.652c0 39.61 29.77 71.305 75.813 71.305h.89c47.848 0 77.625-31.695 77.625-71.305-.894-40.504-29.777-71.32-76.715-71.32zM8.11 198.313h137.195V611.07H8.109zm473.945-9.688c-74.012 0-123.64 69.547-123.64 69.547v-59.86h-137.2V611.07h137.191v-230.5c0-12.34.895-24.66 4.52-33.484 9.918-24.64 32.488-50.168 70.39-50.168 49.645 0 69.5 37.852 69.5 93.34V611.07H640V374.402c0-126.78-67.688-185.777-157.945-185.777zm0 0"></path>
    </symbol>
    <symbol xmlns="http://www.w3.org/2000/svg" viewBox="0 0 512.002 512.002" id="map">
        <path d="M511.89 475.873l-29.997-165.398a7.514 7.514 0 10-14.788 2.681l12.683 69.933-97.782-113.58 65.766-14.678 9.738 5.421 4.228 23.316a7.516 7.516 0 0014.789-2.681l-4.864-26.814a7.513 7.513 0 00-3.738-5.225l-15.343-8.541h-.001l-48.488-26.991h-.001L366.68 192.49l-.002-.001-.008-.005a7.458 7.458 0 00-.888-.417c-.095-.037-.192-.062-.289-.095a7.714 7.714 0 00-.638-.2c-.122-.031-.245-.049-.369-.073a7.685 7.685 0 00-.582-.099c-.132-.016-.263-.021-.396-.029a7.671 7.671 0 00-.567-.02c-.135.001-.269.011-.404.019a6.96 6.96 0 00-.962.125 7.88 7.88 0 00-.944.248 7.734 7.734 0 00-.517.198c-.132.056-.263.111-.394.175-.057.028-.116.047-.172.076l-17.168 8.949c12.772-23.815 19.224-46.88 19.224-68.946 0-57.965-47.158-105.123-105.123-105.123S151.364 74.43 151.364 132.395c0 22.28 6.572 45.579 19.594 69.64l-18.499-9.643c-.057-.03-.118-.05-.176-.078-.126-.062-.256-.116-.384-.17a7.765 7.765 0 00-.525-.201 7.878 7.878 0 00-1.347-.318 7.285 7.285 0 00-.551-.054c-.138-.009-.276-.018-.413-.02a7.801 7.801 0 00-.551.019c-.138.009-.276.014-.414.031-.187.022-.372.059-.557.095-.131.026-.263.045-.393.078-.205.052-.406.121-.607.19-.105.036-.212.064-.317.105a7.57 7.57 0 00-.885.416l-.008.005-.002.001-101.243 56.357a7.507 7.507 0 00-3.738 5.225L11.831 411.308a7.515 7.515 0 006.054 8.735 7.512 7.512 0 008.735-6.054l8.555-47.171 97.261-51.414-7.822 100.994-107.157 48.115 3.771-20.8a7.515 7.515 0 00-14.788-2.681L.121 475.874a7.515 7.515 0 0010.471 8.196l121.168-54.405 121.117 54.382.009.004.041.018c.068.031.139.052.209.081a7.571 7.571 0 00.668.242c.072.022.144.041.216.061a6.512 6.512 0 00.754.163c.075.012.149.03.225.04l.153.02c.251.029.505.044.757.047.032 0 .064.006.096.006l.048-.003c.304-.002.606-.027.909-.066.037-.005.075-.003.113-.009.057-.008.113-.027.171-.036.235-.039.47-.09.702-.153.064-.017.129-.027.193-.045l.02-.004c.021-.006.04-.017.061-.024.292-.09.579-.193.862-.32l121.164-54.405 121.167 54.404c.117.052.237.091.357.137.118.046.234.097.355.137.157.052.318.091.478.132.099.026.195.058.296.079.193.042.388.069.583.096.07.009.138.025.208.033.267.029.534.044.801.044h.003c.365 0 .73-.037 1.094-.09a7.343 7.343 0 001.319-.31c.022-.008.044-.019.066-.026.232-.081.463-.17.689-.277.066-.031.123-.075.188-.108.189-.095.371-.204.553-.317.182-.111.363-.223.534-.35.059-.044.125-.075.184-.12.132-.103.247-.222.371-.334.099-.089.202-.173.297-.266.228-.225.436-.465.629-.714.036-.047.079-.088.115-.136.224-.304.422-.623.597-.955.049-.093.086-.192.132-.288.116-.244.223-.49.313-.745.045-.128.081-.258.119-.39a7.448 7.448 0 00.293-1.902c.003-.123.013-.245.01-.37a6.985 6.985 0 00-.109-1.155zM379.797 216.992l-7.704 1.802-.493-6.365 8.197 4.563zm-16.394 84.226l-31.384-24.505a7.518 7.518 0 00-7.624-.968l-60.844 26.482v-8.235c4.546-3.703 14.875-12.433 27.255-24.962l67.797-29.784 4.8 61.972zm-6.99-90.24l.96 12.392-42.353 18.607a303.601 303.601 0 0011.765-15.555l29.628-15.444zm-200.815 0l31.15 16.238c4.613 6.487 9.666 13.021 15.173 19.598a360.461 360.461 0 0014.231 15.984l-63.86-9.138 3.306-42.682zm-21.79 86.7l-95.224 50.336 4.638-25.574.119-.659 92.37-48.681-1.903 24.578zm3.276-42.29l-90.335 47.609 7.752-42.744 85.91-47.823-2.159 27.881-1.168 15.077zm2.578 161.349l7.115-91.869 88.77 134.922-95.885-43.053zm108.828-28.964l-46.293-72.958 46.293 5.543v67.415zm0-82.553l-60.229-7.211a7.516 7.516 0 00-7.238 11.489l67.467 106.328v36.294l-99.819-151.715 2.458-31.728 82.913 11.864c6.253 5.803 11.322 10.112 14.447 12.685v11.994zm7.997-24.917c-18.977-16.005-90.093-80.494-90.093-147.907-.001-49.678 40.415-90.094 90.093-90.094s90.094 40.416 90.094 90.094c0 67.413-71.117 131.903-90.094 147.907zm7.033 185.299v-33.357l22.466 23.269-22.466 10.088zm37.04-16.632l-37.04-38.364V318.63l62.772-27.32 38.681 30.203 7.375 95.224-71.788 32.233zm72.706-215.017l26.055-6.093 18.478 10.286 10.224 5.692-53.075 11.845-1.682-21.73zm14.131 182.445l-5.867-75.75 96.54 116.464-90.673-40.714zm-7.878-101.727l-2.042-26.37-.086-1.117 107.69 125.09 6.905 38.073-112.467-135.676z"></path>
        <path d="M256.487 85.95a7.515 7.515 0 100 15.03c17.323 0 31.416 14.093 31.416 31.416 0 17.322-14.093 31.416-31.416 31.416s-31.416-14.093-31.416-31.416c0-8.287 3.198-16.106 9.006-22.018a7.513 7.513 0 00-.094-10.626 7.513 7.513 0 00-10.627.094c-8.586 8.739-13.314 20.299-13.314 32.55 0 25.61 20.835 46.446 46.446 46.446s46.446-20.836 46.446-46.446c-.001-25.611-20.836-46.446-46.447-46.446z"></path>
    </symbol>
  </svg>