<svg width="0" height="0" class="none">
    <symbol xmlns="http://www.w3.org/2000/svg" viewBox="0 0 512.032 512.032" id="scissors">
      <path d="M493.68 358.113a97.51 97.51 0 00-16.249-17.546c-7.177-6.048-17.168 5.149-9.664 11.472a82.49 82.49 0 0113.745 14.845c12.825 17.794 17.952 39.516 14.436 61.165-3.517 21.649-15.256 40.633-33.056 53.455-36.744 26.47-88.179 18.12-114.656-18.615l-74.092-102.72 57.693-41.562 4.67-3.364 21.709 30.054a7.5 7.5 0 0010.314 1.799c18.827-12.877 42.406-17.339 64.688-12.247 9.152 2.083 12.909-12.435 3.344-14.623-23.959-5.476-49.183-1.607-70.303 10.588l-21.979-30.426-.003-.003-22.423-31.165 91.4-129.073c15.517-21.528 21.72-47.81 17.466-74.003-4.254-26.194-18.455-49.162-39.987-64.673-3.98-2.331-7.478-1.752-10.495 1.737l-26.74 37.581c-5.441 7.647 6.534 16.692 12.223 8.696l22.175-31.165c14.956 12.911 24.813 30.491 28.019 50.228 3.612 22.238-1.654 44.551-14.864 62.879l-88.458 124.917-47.292-65.73L344.312 79.57c5.441-7.648-6.534-16.692-12.223-8.696l-76.046 106.875L130.437 3.175c-3.02-3.461-6.51-4.029-10.472-1.705-21.531 15.511-35.732 38.479-39.986 64.673-4.254 26.193 1.949 52.475 17.46 73.996l92.794 129.047-22.487 31.208-.004.006-21.965 30.407c-19.701-11.426-42.619-15.539-65.296-11.59-25.142 4.378-47.207 18.192-62.13 38.896-15.168 21.045-21.231 46.736-17.072 72.34 4.16 25.604 18.043 48.056 39.094 63.221 17.141 12.348 36.985 18.289 56.655 18.289 30.194 0 59.977-13.998 78.937-40.304l78.478-108.802.001-.002.001-.001 1.572-2.182 1.563 2.174.007.011 78.479 108.802c18.962 26.308 48.74 40.306 78.937 40.303 19.667-.001 39.517-5.942 56.655-18.288 21.051-15.165 34.935-37.617 39.094-63.221 4.161-25.604-1.903-51.295-17.072-72.34zM94.785 68.547c3.208-19.75 13.077-37.341 28.05-50.254l126.662 176.042a7.407 7.407 0 001.044 1.451l77.193 107.288-35.306 25.434-27.051 19.487-2.892-4.021a7.45 7.45 0 00-.718-.998l-152.156-211.6c-13.172-18.277-18.437-40.59-14.826-62.829zm151.998 279.281l-.124.172-62.359-44.922 15.168-21.049zm-82.987 115.06c-26.478 36.734-77.911 45.083-114.656 18.615-17.799-12.822-29.539-31.806-33.055-53.455-3.517-21.648 1.61-43.371 14.436-61.165 12.618-17.506 31.275-29.186 52.535-32.889a83.012 83.012 0 0114.251-1.237c16.4 0 32.417 4.913 46.195 14.337a7.5 7.5 0 0010.314-1.799l21.709-30.053 62.362 44.925z"></path>
      <path d="M381.261 368.248c-12.514 9.014-20.767 22.361-23.239 37.582s1.132 30.493 10.149 43.003c11.271 15.637 28.975 23.958 46.923 23.958a57.436 57.436 0 0033.678-10.872c12.514-9.014 20.767-22.361 23.238-37.582 2.473-15.22-1.131-30.493-10.148-43.003-18.614-25.824-54.771-31.695-80.601-13.086zm68.433 21.857c6.673 9.259 9.341 20.563 7.511 31.828s-7.938 21.144-17.2 27.815c-19.121 13.776-45.886 9.429-59.665-9.686-6.674-9.259-9.341-20.563-7.512-31.828 1.83-11.265 7.939-21.144 17.201-27.815a42.51 42.51 0 0124.931-8.048c13.285 0 26.391 6.16 34.734 17.734zm-318.923-21.857c-25.831-18.607-61.987-12.738-80.601 13.086-15.537 21.556-14.413 50.76 2.735 71.019 6.063 7.163 17.789-2.201 11.449-9.691-12.687-14.989-13.516-36.601-2.015-52.557 13.777-19.116 40.543-23.46 59.664-9.686 9.262 6.672 15.371 16.55 17.201 27.815s-.838 22.568-7.512 31.828a42.77 42.77 0 01-36.015 17.733c-10.757-.357-9.35 15.02 1.31 15.02a57.716 57.716 0 0046.874-23.982c9.017-12.51 12.621-27.783 10.148-43.003-2.471-15.222-10.725-28.568-23.238-37.582zm148.073-97.298c0-12.587-10.24-22.828-22.828-22.828-12.587 0-22.828 10.24-22.828 22.828s10.24 22.828 22.828 22.828c12.588-.001 22.828-10.241 22.828-22.828zm-30.656 0c0-4.316 3.511-7.828 7.828-7.828s7.828 3.511 7.828 7.828-3.512 7.828-7.828 7.828-7.828-3.512-7.828-7.828z"></path>
    </symbol>
    <symbol xmlns="http://www.w3.org/2000/svg" viewBox="0 0 167.657 167.657" id="facebook-circular-logo">
        <path d="M83.829.349C37.532.349 0 37.881 0 84.178c0 41.523 30.222 75.911 69.848 82.57v-65.081H49.626v-23.42h20.222V60.978c0-20.037 12.238-30.956 30.115-30.956 8.562 0 15.92.638 18.056.919v20.944l-12.399.006c-9.72 0-11.594 4.618-11.594 11.397v14.947h23.193l-3.025 23.42H94.026v65.653c41.476-5.048 73.631-40.312 73.631-83.154 0-46.273-37.532-83.805-83.828-83.805z"></path>
    </symbol>
    <symbol xmlns="http://www.w3.org/2000/svg" viewBox="0 0 512 512" id="twitter">
        <path d="M256 0C114.637 0 0 114.637 0 256s114.637 256 256 256 256-114.637 256-256S397.363 0 256 0zm116.887 199.602c.113 2.52.168 5.05.168 7.593 0 77.645-59.102 167.18-167.184 167.184h.004-.004c-33.184 0-64.062-9.727-90.066-26.395 4.597.543 9.277.813 14.015.813 27.532 0 52.868-9.39 72.98-25.152-25.722-.477-47.41-17.465-54.894-40.813a58.481 58.481 0 0011.043 1.063 58.8 58.8 0 0015.496-2.07c-26.886-5.384-47.14-29.145-47.14-57.598 0-.266 0-.504.007-.75a58.354 58.354 0 0026.614 7.347c-15.778-10.527-26.149-28.523-26.149-48.91a58.597 58.597 0 017.957-29.535c28.977 35.555 72.282 58.937 121.118 61.394a58.708 58.708 0 01-1.528-13.398c0-32.437 26.317-58.754 58.766-58.754 16.902 0 32.168 7.145 42.89 18.567a117.855 117.855 0 0037.313-14.262c-4.395 13.715-13.707 25.222-25.84 32.5 11.887-1.422 23.215-4.574 33.742-9.254a119.412 119.412 0 01-29.308 30.43zm0 0"></path>
    </symbol>
    <symbol xmlns="http://www.w3.org/2000/svg" viewBox="0 0 97.75 97.75" id="pinterest-social-logo">
        <path d="M48.875 0C21.883 0 0 21.882 0 48.875S21.883 97.75 48.875 97.75 97.75 75.868 97.75 48.875 75.867 0 48.875 0zm5.624 65.109c-4.521 0-8.773-2.444-10.229-5.219 0 0-2.432 9.645-2.943 11.506-1.813 6.58-7.146 13.162-7.561 13.701-.289.375-.928.258-.994-.24-.113-.838-1.475-9.139.127-15.909.801-3.4 5.383-22.814 5.383-22.814s-1.334-2.673-1.334-6.625c0-6.205 3.596-10.837 8.074-10.837 3.807 0 5.645 2.859 5.645 6.286 0 3.828-2.436 9.552-3.693 14.856-1.051 4.441 2.225 8.064 6.605 8.064 7.933 0 13.272-10.188 13.272-22.261 0-9.174-6.176-16.044-17.418-16.044-12.697 0-20.615 9.471-20.615 20.052 0 3.646 1.078 6.221 2.764 8.21.773.915.883 1.283.602 2.333-.203.771-.66 2.625-.854 3.358-.279 1.062-1.137 1.44-2.098 1.049-5.846-2.387-8.572-8.793-8.572-15.994 0-11.893 10.029-26.154 29.922-26.154 15.985 0 26.506 11.566 26.506 23.984.001 16.428-9.132 28.698-22.589 28.698z"></path>
    </symbol>
  </svg>